<svg width="48" height="48" fill="none" xmlns="http://www.w3.org/2000/svg"><g filter="url(#filter0_i_830_241)"><rect x="3" y="3" width="42" height="42" rx="21" fill="url(#paint0_linear_830_241)"/></g><g filter="url(#filter1_d_830_241)" fill="#fff"><path d="M11 37c.341-1.025.658-1.958.974-2.892.408-1.214.816-2.42 1.24-3.635a.526.526 0 00-.05-.496 12.477 12.477 0 01-1.698-6.429c.034-6.354 4.953-11.774 11.289-12.468 6.751-.735 12.737 3.669 14.027 10.328 1.307 6.792-3.405 13.551-10.265 14.724-2.838.488-5.544.1-8.116-1.19a.884.884 0 00-.75-.049c-2.04.661-4.087 1.306-6.127 1.95-.133.041-.283.083-.524.157zm3.322-3.239c1.298-.413 2.505-.785 3.704-1.181.241-.083.425-.067.658.074 2.364 1.413 4.903 1.859 7.625 1.355 6.385-1.173 10.248-8.155 7.817-14.162-2.339-5.792-8.924-8.379-14.56-5.61-3.796 1.867-5.769 5.023-5.935 9.245-.092 2.24.574 4.289 1.84 6.14a.508.508 0 01.066.528c-.266.752-.516 1.512-.774 2.264-.133.413-.275.843-.441 1.347z"/><path d="M20.082 17.467c.192.017.383.05.583.05.3-.009.475.148.575.396.35.9.69 1.793 1.023 2.702.109.29-.016.546-.183.769-.224.28-.458.553-.707.801-.217.215-.267.421-.117.694 1.007 1.826 2.448 3.173 4.379 4.008.258.115.45.04.624-.157.325-.372.675-.728.983-1.124.224-.29.466-.372.79-.207l2.573 1.339c.233.115.283.314.266.553-.091 1.438-.865 2.223-2.48 2.628-.592.149-1.166.066-1.757-.1-3.205-.916-5.611-2.842-7.367-5.618-.583-.925-1.166-1.842-1.34-2.941-.226-1.389.199-2.554 1.248-3.487.25-.223.558-.339.907-.306z"/></g><defs><filter id="filter0_i_830_241" x="3" y="3" width="42" height="42" filterUnits="userSpaceOnUse" color-interpolation-filters="sRGB"><feFlood flood-opacity="0" result="BackgroundImageFix"/><feBlend in="SourceGraphic" in2="BackgroundImageFix" result="shape"/><feColorMatrix in="SourceAlpha" values="0 0 0 0 0 0 0 0 0 0 0 0 0 0 0 0 0 0 127 0" result="hardAlpha"/><feOffset/><feGaussianBlur stdDeviation="2"/><feComposite in2="hardAlpha" operator="arithmetic" k2="-1" k3="1"/><feColorMatrix values="0 0 0 0 1 0 0 0 0 1 0 0 0 0 1 0 0 0 0.35 0"/><feBlend in2="shape" result="effect1_innerShadow_830_241"/></filter><filter id="filter1_d_830_241" x="8" y="8" width="32" height="32" filterUnits="userSpaceOnUse" color-interpolation-filters="sRGB"><feFlood flood-opacity="0" result="BackgroundImageFix"/><feColorMatrix in="SourceAlpha" values="0 0 0 0 0 0 0 0 0 0 0 0 0 0 0 0 0 0 127 0" result="hardAlpha"/><feOffset/><feGaussianBlur stdDeviation="1.5"/><feComposite in2="hardAlpha" operator="out"/><feColorMatrix values="0 0 0 0 0.133333 0 0 0 0 0.133333 0 0 0 0 0.133333 0 0 0 0.75 0"/><feBlend in2="BackgroundImageFix" result="effect1_dropShadow_830_241"/><feBlend in="SourceGraphic" in2="effect1_dropShadow_830_241" result="shape"/></filter><linearGradient id="paint0_linear_830_241" x1="3" y1="3" x2="45" y2="45" gradientUnits="userSpaceOnUse"><stop stop-color="#51C85D"/><stop offset="1" stop-color="#25892F"/></linearGradient></defs></svg>